<?xml version="1.0" encoding="UTF-8"?>
<svg id="Lag_1" data-name="Lag 1" xmlns="http://www.w3.org/2000/svg" viewBox="0 0 40.08 50">
  <path d="M38.15,15.13c-.1-1.88-1.65-3.35-3.53-3.35h-4.72v-1.56C29.9,4.83,25.52.44,20.12.44s-9.77,4.39-9.77,9.79v1.55s-4.65,0-4.65,0c-1.88,0-3.43,1.47-3.53,3.34L.46,45.83c-.05.96.3,1.92.97,2.62.66.71,1.6,1.11,2.56,1.11h32.26c.97,0,1.9-.4,2.57-1.11.66-.7,1.02-1.65.96-2.62l-1.63-30.7ZM12.96,10.22c0-3.95,3.21-7.16,7.16-7.16s7.17,3.21,7.17,7.16v1.56h-14.32v-1.56ZM36.92,46.66c-.17.18-.41.28-.67.28H3.99c-.25,0-.49-.1-.66-.28-.18-.19-.27-.43-.25-.69l1.7-30.71c.03-.48.43-.87.92-.87h28.92c.49,0,.89.39.91.88l1.64,30.7c.01.26-.07.5-.25.69Z"/>
  <path d="M20.18,30.67c-5.39,0-9.78-4.39-9.78-9.78v-2.87h2.62v2.87c0,3.95,3.21,7.16,7.16,7.16s7.16-3.21,7.16-7.16v-2.86s2.6-.01,2.6-.01v2.87c.01,5.4-4.37,9.78-9.76,9.78Z"/>
</svg>