<?xml version="1.0" encoding="UTF-8"?>
<svg id="Lag_1" xmlns="http://www.w3.org/2000/svg" version="1.1" viewBox="0 0 586.9 194.6">
  <!-- Generator: Adobe Illustrator 29.5.1, SVG Export Plug-In . SVG Version: 2.1.0 Build 141)  -->
  <defs>
    <style>
      .st0 {
        fill: #fff;
      }

      .st1 {
        fill: #f75454;
      }

      .st2 {
        fill: #161619;
      }
    </style>
  </defs>
  <g>
    <path class="st2" d="M103.6,74.9C186.2-41.5,8.7,38.8,71.4,46.6c-.1,5.4-2.7,76.1-2.1,78.8-1.9,18.1,1.2,25.9-3,27.4-8.4,3-.7,8.1,4.3,8.6,28,3.9,75.9-53.5,26-61.2-20.4,0,.7-9,7-25.2h0ZM101.8,111.9c7.6,2.6-4,22.6-15,27.4-3,1.3-3.2-30.9,15-27.4ZM85.4,72.6c-4.2,5.4,7.1-29.5-2.1-38.3,42.5-24.3,23.5,8.5,2.1,38.3Z"/>
    <path class="st2" d="M162.1,82.9c-32.7-56.9-57.2,44.5-20.7,52.1,20.4,1.4,26.1-36.4,20.7-52.1ZM149.4,105.3c-8.4,40.8-13.1-10.2-8-25.4,8.4-6.2,10.2,17.7,8,25.4Z"/>
    <path class="st2" d="M223.8,135.5c-1.8-18,1.8-63.3-7.6-69.5-1.8-1.4-8.8-3.6-10.1,0-27.8-16.7-41.1,38.2-30,57.2,13.6,14.8,27-2.9,31.9-15.8,1.5,17.2,10.7,99-23.7,64.9-27.7-34.4,3.4-25.8-13.6-33.4-60.8-9.6,61.1,123.4,53.2-3.4h0ZM205.1,78.7c-3.7,8.1-11.9,36.9-18.9,37.4-1.6-15.4,2-35.2,14.3-44.2,1.2-.3,1.1,4.7,2.3,4.7,1-.3,2.9,1,2.2,2.1h0Z"/>
    <path class="st2" d="M269.6,82.9c-4.7-18.3-21.1-16.8-32.7-11.1-10.1,13.9-8.9,79.7,23,59.8,10-9.9,14.6-34.7,9.7-48.7ZM256.9,105.3c-8.7,43.7-13.7-13.2-7.4-25.5,9.3-8.2,8.9,15.8,7.4,25.5Z"/>
    <path class="st2" d="M334.9,66.9c-2,.5-8,2.4-9.7,3.1-41.5,16.4-10.7,84.6-39.9,62.1-3.6-4.9-8-64.5.7-63.9,3.3-1.7,9.3,2.8,9.5,11,7.1-13.2,29.7-22.3,39.5-12.3h0Z"/>
    <path class="st2" d="M423.6,116.9c-14.8.4-22-6.9-28.7-22.4-7,16.6-9.8,30.3-23.8,24.3-6.2-2.9-5.2-15.7-7.6-45.2-3.7,0-2.4,69.6-16.2,69.8-22.4-.5-16.2-69.3-13.6-88.9.8-7.3,6.7-5,8.8-4,2,.9,2.9,1.9,3.8,5,1.7,7.6-3.3,42.2-.4,49.7,4.2-30.1,6.1-61.8,19.5-60.3,10.9,1.5,12.9,43.6,13.7,54.3,14.9-48.4,32.9-1.7,44.6,17.7h0Z"/>
    <path class="st2" d="M467.5,107.1c-8,5.1-34.6,39.3-32.8-9.8-.5,11.9,32-5.3,25.3-21.3-29.2-31.2-43.7,21.5-40.5,40.7,4.7,33.9,49.3,20.7,48-9.7ZM440.7,80c9.2-14.4,9.9,7.8-1.1,10.2-6.6.9-.7-7.3,1.1-10.2Z"/>
    <path class="st2" d="M526.7,122.4c-24,15.5-28.2-30.4-31.7-53-13,13.4-6.5,70.3-15.7,71.1-2.1,0-2.5.1-5.5-.1-11.1-1.2-7.3-19.1-7.4-24.2-.1-9.3-3.2-57.9,6.6-55.9,3.4,0,7.8,6.8,6.7,11.3,32.8-50.7,26.5,46.1,47,50.8Z"/>
    <path class="st2" d="M285.3,132.2c-3.6-4.9-8-64.5.7-63.9,5.1.4,9.3,2.8,9.5,11"/>
  </g>
  <path class="st0" d="M417.7,138.7v3.4c0,1.5.7,3.1,1.8,4.2s2.8,1.8,4.2,1.8c3.2-.1,6-2.6,6-6v-3.4c0-1.5-.7-3.1-1.8-4.2s-2.8-1.8-4.2-1.8c-3.2.1-6,2.6-6,6h0Z"/>
  <g>
    <path class="st1" d="M290.5,152.4c.6,3,1.2,5.9,1.7,8.9-17.8.6-35.6,2.2-53.3,5.3-5.7,1-8.1-7.7-2.4-8.7,17.8-3.1,35.9-4.8,53.9-5.6Z"/>
    <path class="st1" d="M377.4,154.3c.1,3,.4,6.1.8,9.1-26.6-1.5-53.3-2.9-79.9-2.2-.5-3-1.1-6-1.7-8.9,6.8-.2,13.5-.3,20.3-.2,20.2.1,40.3,1.1,60.5,2.3Z"/>
    <path class="st1" d="M450,157.8c.1,3,.5,6,.9,9-19.3-.4-38.6-1.4-57.9-2.6-2.9-.2-5.9-.3-8.8-.5-.4-3-.7-6-.9-9.1,22.2,1.3,44.4,2.7,66.7,3.1h0Z"/>
    <path class="st1" d="M533.8,158.2c-1.1.6-2.3,1.2-3.4,1.8-18.5,8.3-40.5,6.7-60.2,6.9-4.4,0-8.7,0-13.1,0-.5-3-.8-6-1-9,2.1,0,4.2,0,6.4,0,19.2,0,40.5,1.7,59.1-4.2,2-.6,3.9-1.4,5.7-2.3,2.1,2.4,4.2,4.7,6.5,6.8Z"/>
    <path class="st1" d="M538.9,154.9c-2.3-2.1-4.5-4.3-6.5-6.6,11.8-8.3,20-23,17-37.4-1.2-5.7,7.5-8.1,8.7-2.4,3.6,17.3-5.1,35.8-19.2,46.4h0Z"/>
  </g>
  <g>
    <path class="st1" d="M50.3,168.7c.2,3.2-.4,6.3-1.7,9.2-6.2-2.1-12.2-4.7-18.3-7.1-5.3-2.1-3-10.8,2.4-8.7,6,2.3,11.7,4.6,17.5,6.5Z"/>
    <path class="st1" d="M111.6,170.6c.4,2.9.9,5.8,1.5,8.6-11,2.1-22,3.7-33.5,3.7-8.1,0-16.2-.6-24-2.8-.4-.1-.8-.2-1.2-.3,1.2-3,1.8-6.1,1.9-9.2,7.4,2.1,15.1,3.4,23.3,3.4,9.7,0,19.3-.7,28.8-2.6,1.1-.2,2.1-.4,3.2-.7Z"/>
    <path class="st1" d="M143.6,172.6c-8.3,1.8-16.5,3.7-24.7,5.4-.6-2.9-1.1-5.8-1.5-8.7,7.9-1.8,15.8-3.7,23.8-5.4,5.7-1.2,8.1,7.5,2.4,8.7Z"/>
  </g>
</svg>