<?xml version="1.0" encoding="UTF-8"?>
<svg id="Lag_1" xmlns="http://www.w3.org/2000/svg" version="1.1" viewBox="0 0 52 50">
  <!-- Generator: Adobe Illustrator 29.5.1, SVG Export Plug-In . SVG Version: 2.1.0 Build 141)  -->
  <defs>
    <style>
      .st0 {
        fill: #f75454;
      }
    </style>
  </defs>
  <path class="st0" d="M39.8,49.4c-.7,0-1.3-.2-1.9-.6l-11.9-8.3-11.9,8.3c-1.2.8-2.7.8-3.8,0-1.2-.8-1.6-2.3-1.2-3.6l4.2-13.9L1.7,22.5c-1.1-.9-1.6-2.3-1.1-3.6.4-1.4,1.6-2.2,3.1-2.3l14.5-.3,4.8-13.7c.5-1.3,1.7-2.2,3.1-2.2h0c1.4,0,2.6.9,3.1,2.2l4.8,13.7,14.5.3c1.4,0,2.6.9,3.1,2.3.4,1.4,0,2.8-1.1,3.6l-11.5,8.8,4.2,13.9c.4,1.4,0,2.8-1.2,3.6-.6.4-1.3.6-1.9.6ZM26,37.5c.3,0,.6,0,.8.2l12.7,8.8c.3.2.5,0,.6,0,.1,0,.3-.3.2-.6l-4.5-14.8c-.2-.6,0-1.2.5-1.5l12.3-9.3c.3-.2.2-.5.2-.6,0-.1-.2-.4-.5-.4l-15.5-.3c-.6,0-1.1-.4-1.3-.9l-5.1-14.6c-.1-.3-.4-.4-.5-.4h0c-.1,0-.4,0-.5.4l-5.1,14.6c-.2.5-.7.9-1.3.9l-15.5.3c-.3,0-.4.2-.5.4,0,.1,0,.4.2.6l12.3,9.3c.5.3.7.9.5,1.5l-4.5,14.8c0,.3,0,.5.2.6.1,0,.3.2.6,0l12.7-8.8c.2-.2.5-.2.8-.2Z"/>
</svg>