<?xml version="1.0" encoding="UTF-8"?>
<svg id="Lag_1" data-name="Lag 1" xmlns="http://www.w3.org/2000/svg" viewBox="0 0 60.54 57.32">
  <defs>
    <style>
      .cls-1 {
        fill: #fc0;
      }

      .cls-2 {
        fill: #ffd21e;
      }

      .cls-3 {
        fill: #ffd119;
      }

      .cls-4 {
        fill: #ffd117;
      }

      .cls-5 {
        fill: #ffd426;
      }

      .cls-6 {
        fill: #ffe680;
      }

      .cls-7 {
        fill: #ffd52b;
      }

      .cls-8 {
        fill: #ffd21b;
      }

      .cls-9 {
        fill: #ffe47a;
      }

      .cls-10 {
        fill: #fd5;
      }

      .cls-11 {
        fill: #ffd324;
      }

      .cls-12 {
        fill: #ffd62f;
      }

      .cls-13 {
        fill: #ffd52e;
      }

      .cls-14 {
        fill: #ffd427;
      }

      .cls-15 {
        fill: #ffd428;
      }

      .cls-16 {
        fill: #ffd52d;
      }

      .cls-17 {
        fill: #ffd21c;
      }

      .cls-18 {
        fill: #ffd42b;
      }

      .cls-19 {
        fill: #ffd734;
      }

      .cls-20 {
        fill: #ffcf0e;
      }

      .cls-21 {
        fill: #ffcf0f;
      }

      .cls-22 {
        fill: #ffd631;
      }

      .cls-23 {
        fill: #ffd634;
      }

      .cls-24 {
        fill: #ffcd05;
      }

      .cls-25 {
        fill: #ffd630;
      }

      .cls-26 {
        fill: #ffd321;
      }

      .cls-27 {
        fill: #ffd325;
      }

      .cls-28 {
        fill: #ffd42a;
      }

      .cls-29 {
        fill: #ffd52c;
      }

      .cls-30 {
        fill: #ffd11a;
      }
    </style>
  </defs>
  <path class="cls-1" d="M48.9,56.6c.05.16.11.36.11.53,0,.09.01.1-.08.08l-18.49-9.73-.11-.05c0-5.27.03-10.53.09-15.79l.07-.04h.06c.1-.07.14,0,.2.08l17.97,24.48.19.44Z"/>
  <path class="cls-10" d="M30.49,31.6l-.06,15.88c-2.44,1.29-4.88,2.58-7.33,3.86-.04-.03-.09-.06-.06,0-.03.02-.1.08-.17.11-.04-.03-.09-.06-.06,0-.08.04-.18.12-.28.17-.02-.03-.04-.03-.06,0-.02,0-.03.04-.06.06-.02-.03-.04-.03-.06,0-.02,0-.03.04-.06.06-.06,0-.11.01-.17.06-.09.01-.11.03-.06.06-.04.02-.1.08-.17.11-.04-.03-.09-.06-.06,0-.03.02-.1.08-.17.11-.04-.03-.09-.06-.06,0-.03.02-.1.08-.17.11-.34.13-.68.28-1.01.45v.06s-.1.08-.17.11c-.52.22-1.04.47-1.57.73-.79.48-1.62.92-2.46,1.29-1.39.78-2.81,1.52-4.24,2.23l-.18.17s0,.07-.06.06c.06-.14-.11-.18-.11-.19,0-.05.13-.2.17-.25.91-1.33,1.82-2.66,2.77-3.96,4.28-5.85,8.56-11.7,12.85-17.55.48-.65.97-1.29,1.46-1.93s.99-1.27,1.49-1.9l.06.11Z"/>
  <path class="cls-1" d="M30.32,31.37c.19,0,0,.2-.13.26l-14.74,4.7c-.08.07-.14.11-.23.02C10.21,31.59,5.34,26.68.33,21.92c0-.03.03-.04.06-.06h.4c9.8,3.12,19.58,6.23,29.37,9.34.08.04.16.08.17.17Z"/>
  <path class="cls-28" d="M30.49,31.43c.02.05,0,.07-.06.06-6.19,8.44-12.36,16.91-18.58,25.33l3.41-20.23-.05-.24.19-.12,14.88-4.75c.07,0,.03-.11.04-.11-.08-.08-.04-.11.06-.06.02-.05.04-.05.06,0,.03-.17.09-.21.17-.11.15.09.06.25-.11.22Z"/>
  <path class="cls-10" d="M30.82,31.49c4.81,1.47,9.76,3.04,14.62,4.6.09.03.23.3.1.37,0,.01-.06.12-.03.17l3.39,19.97-18.35-25-.11-.11s.04-.04.06-.06c.1-.1.31-.11.34.06Z"/>
  <path class="cls-1" d="M60.42,21.87s.04.04.06.06c-4.97,4.86-9.94,9.72-14.94,14.54,0-.02-.13-.27-.15-.28-4.8-1.55-9.63-3.01-14.41-4.6-.07-.02-.13-.09-.15-.1l.02-.12c9.76-3.17,19.52-6.34,29.29-9.52.12-.04.22-.03.3.02Z"/>
  <path class="cls-24" d="M16.27,54.81c.09-.03.1-.03.06.06-1.48.77-2.97,1.65-4.48,2.35l.13-.24c1.41-.76,2.87-1.44,4.29-2.17Z"/>
  <path class="cls-20" d="M18.79,53.58c-.82.43-1.64.86-2.46,1.29l-.06-.06c.82-.42,1.64-.86,2.46-1.29.09-.03.1-.03.06.06Z"/>
  <path class="cls-17" d="M20.3,52.79c-.5.26-1.01.52-1.51.78l-.06-.06c.45-.23.89-.48,1.34-.7.06-.03.19-.14.22-.03Z"/>
  <path class="cls-18" d="M21.48,52.18c-.32.17-.63.34-.95.5-.03,0-.06-.01-.06-.06.18-.16.55-.31.78-.42.06-.03.19-.14.22-.03Z"/>
  <path class="cls-7" d="M22.32,51.73c-.06.03-.13.03-.17.06.04-.02.08-.09.14-.11l.03.05Z"/>
  <path class="cls-27" d="M22.15,51.79s-.03.04-.06.06l-.06-.06s.09.01.11,0Z"/>
  <path class="cls-2" d="M21.93,51.96s-.04,0-.06,0l-.06-.03c0-.06.12-.05.11.03Z"/>
  <path class="cls-8" d="M21.7,52.07s-.04,0-.06,0l-.06-.03c0-.06.12-.05.11.03Z"/>
  <path class="cls-12" d="M23.1,51.34s-.04,0-.06,0l-.06-.03c0-.06.12-.05.11.03Z"/>
  <path class="cls-21" d="M20.53,52.68s-.04,0-.06,0l-.05-.03s.05-.02.05-.03l.06.06Z"/>
  <path class="cls-29" d="M22.88,51.45s-.04,0-.06,0l-.06-.03c0-.06.12-.05.11.03Z"/>
  <path class="cls-3" d="M22.54,51.62s-.04,0-.06,0l.03-.05.03.05Z"/>
  <path class="cls-30" d="M22.43,51.68s-.04,0-.06,0l.03-.05.03.05Z"/>
  <path class="cls-1" d="M30.43,31.32s-.04,0-.06,0c-.07.01-.14-.02-.21-.1-3.01-4.12-6.01-8.24-9.01-12.36l.05-.12L30.38.11l.07.02c.09,10.22.09,20.85.06,31.08l-.08.11Z"/>
  <path class="cls-6" d="M21.2,18.74l9.18,12.58s-.03.04-.06.06L.38,21.87c.13-.09.93-.18,1.16-.21,6.55-.99,13.11-1.9,19.66-2.92Z"/>
  <path class="cls-10" d="M30.49.06l9.23,18.74c-1.28,1.74-2.58,3.49-3.92,5.26-.29.52-.67,1-1.06,1.45-.17.32-.38.62-.62.89l-.62.84-.45.62-.17.22-.45.62-.17.22c-.1.15-.21.28-.34.39-.02.08-.05.15-.11.22l-.17.22-.28.39-.17.22-.17.22-.28.39-.17.22c-.05.04-.11.07-.17.11l-.06-31.21.11-.06Z"/>
  <path class="cls-6" d="M60.42,21.87l-29.6,9.62c-.08-.02-.24.03-.34-.06.06-.09.07-.16.11-.22l.17-.22.28-.39.17-.22.17-.22.28-.39.17-.22c.04-.09.1-.17.17-.22.08-.13.17-.26.28-.39l.17-.22.45-.62.17-.22.45-.62.62-.84.62-.84c.35-.51.73-.99,1.12-1.45,1.23-1.81,2.57-3.6,3.86-5.31.08-.03.15-.08.24-.05l20.32,3.02c.1,0,.1.06.14.11Z"/>
  <polygon class="cls-9" points="30.54 31.6 30.49 31.6 30.43 31.49 30.54 31.6"/>
  <path class="cls-4" d="M39.72,18.79l-.03.11c-1.29,1.72-2.56,3.47-3.83,5.2-.08.07-.11.04-.06-.06,1.26-1.73,2.53-3.46,3.78-5.2.03-.05.1-.04.14-.06Z"/>
  <path class="cls-26" d="M35.86,24.1c-.36.49-.7,1.01-1.12,1.45v-.06c.35-.49.71-.97,1.06-1.45l.06.06Z"/>
  <path class="cls-11" d="M34.74,25.56c-.11.33-.4.58-.62.84.2-.3.4-.6.62-.89v.06Z"/>
  <path class="cls-5" d="M33.51,27.24c.22-.34.36-.53.62-.84-.22.33-.36.53-.62.84Z"/>
  <path class="cls-15" d="M33.06,27.85c.17-.27.25-.37.45-.62-.17.26-.24.37-.45.62Z"/>
  <path class="cls-7" d="M32.45,28.69c.17-.27.24-.37.45-.62-.17.27-.24.37-.45.62Z"/>
  <path class="cls-13" d="M32,29.31h-.06c.1-.16.22-.26.34-.39-.12.2-.14.22-.28.39Z"/>
  <path class="cls-22" d="M31.38,30.14c.12-.2.13-.22.28-.39-.12.2-.12.21-.28.39Z"/>
  <path class="cls-19" d="M30.77,30.98c.12-.19.12-.21.28-.39-.12.2-.13.22-.28.39Z"/>
  <path class="cls-25" d="M31.21,30.37s.01-.09.05-.14c.03-.04.09-.06.11-.08-.08.14-.07.11-.17.22Z"/>
  <path class="cls-13" d="M31.66,29.75c.08-.14.08-.12.17-.22-.08.14-.08.12-.17.22Z"/>
  <path class="cls-28" d="M32.28,28.91c.08-.14.08-.12.17-.22-.08.13-.08.12-.17.22Z"/>
  <path class="cls-22" d="M31.05,30.59c.08-.14.07-.11.17-.22-.02.02-.01.09-.05.14-.03.04-.09.06-.11.08Z"/>
  <path class="cls-14" d="M32.89,28.08c.08-.13.08-.12.17-.22-.08.13-.08.12-.17.22Z"/>
  <path class="cls-23" d="M30.6,31.21c.08-.13.08-.12.17-.22-.07.12-.02.1-.17.22Z"/>
  <path class="cls-16" d="M31.83,29.53c.04-.06.06-.14.11-.22h.06c-.05.06-.09.13-.17.22Z"/>
</svg>