<?xml version="1.0" encoding="UTF-8"?>
<svg id="Lag_1" data-name="Lag 1" xmlns="http://www.w3.org/2000/svg" viewBox="0 0 39.47 50">
  <path d="M20.45,49.89c-7.8,0-14.37-1.78-17.7-2.89-1.67-.56-2.72-2.18-2.55-3.94,1.18-11.98,6.49-16.69,6.72-16.88l1.96,2.27-.98-1.14.99,1.13s-4.64,4.23-5.7,14.91c-.04.36.17.68.51.79,5.18,1.72,18.68,5.18,31.89.01.27-.1.44-.4.43-.71-.17-3.04-1.03-10.59-5.42-15.09l2.15-2.1c5.1,5.22,6.08,13.64,6.27,17.02.09,1.62-.85,3.09-2.33,3.67-5.56,2.17-11.16,2.93-16.23,2.93Z"/>
  <path d="M19.6,27.28c-7.36,0-13.34-5.99-13.34-13.34S12.24.6,19.6.6s13.34,5.98,13.34,13.34-5.99,13.34-13.34,13.34ZM19.6,3.6c-5.7,0-10.34,4.64-10.34,10.34s4.64,10.34,10.34,10.34,10.34-4.64,10.34-10.34S25.3,3.6,19.6,3.6Z"/>
</svg>